<svg version="1.1" xmlns="http://www.w3.org/2000/svg" viewBox="0 0 680.9 604.4">
 <g>
  <path fill="#C20016" d="M248,162.2c0.8-0.8,1.6-1.2,2.2-1.2c1.2,0,2,1,2,2.4c0,0.8-0.4,1.6-1,2.4c-29.1,36.1-50.2,78.3-50.2,136.7s21.1,99.9,50.2,135.9c0.8,0.8,1,1.6,1,2.4c0,1.2-0.8,2.4-2,2.4c-0.6,0-1.4-0.4-2.2-1.2L124.4,322.5c-6.2-5.4-10.2-11.4-10.2-20.3c0-8.8,4-15,10.2-20.1L248,162.2"/>
  <path fill="#254F9B" d="M343.1,152.2c-48.4,0-67.4,68.6-67.4,150.5c0,81.7,18.9,149.5,67.4,149.5c29.1,0,53.8-16.9,53.8-31.1c0-3-1.2-6-3.8-8.6c-13.8-13.4-19.1-26.5-19.1-38.3c0-22.3,19.3-39.1,37.3-39.1c24.7,0,39.1,19.3,39.1,44.5c0,23.7-10.2,43.5-21.1,59.4c-0.4,0.6-0.6,1.4-0.6,2c0,1.2,0.8,2.2,1.8,2.2c0.6,0,1.4-0.4,2.4-1.2l123.8-119.6c6.2-5.4,10.2-11.4,10.2-20.3c0-8.8-4-15-10.2-20.1L432.8,162.4c-0.8-0.8-1.6-1.2-2.4-1.2c-1.2,0-1.8,1-1.8,2.2c0,0.6,0.2,1.4,0.6,2c11,15.7,21.1,35.7,21.1,59.4c0,25.1-14.6,44.5-39.1,44.5c-17.9,0-37.3-16.7-37.3-39.1c0-11.8,5.4-25.1,19.1-38.3c2.6-2.6,3.8-5.6,3.8-8.6C396.9,169.2,372,152.2,343.1,152.2z"/>
 </g>
</svg>
